<?xml version="1.0" encoding="UTF-8"?>
<svg width="23px" height="23px" viewBox="0 0 23 23" version="1.1" xmlns="http://www.w3.org/2000/svg" xmlns:xlink="http://www.w3.org/1999/xlink">
    <!-- Generator: Sketch 63.1 (92452) - https://sketch.com -->
    <title>Icon / Facebook</title>
    <desc>Created with Sketch.</desc>
    <g id="Symbols" stroke="none" stroke-width="1" fill="none" fill-rule="evenodd">
        <g id="Group-/-Share-social-media-/-Desktop" transform="translate(-87.000000, 0.000000)" fill="#4F4C4D">
            <g id="Group-/-Follow-social-media-/-Desktop">
                <g>
                    <g id="Stacked-Group">
                        <g id="Group-/-Social-media" transform="translate(87.000000, 0.000000)">
                            <g id="Stacked-Group">
                                <g id="Icon-/-Facebook">
                                    <g id="Fill-1">
                                        <path d="M14.9037764,6.76545 L13.2966514,6.76545 C12.7289986,6.76545 12.6108042,6.99800556 12.6108042,7.584825 L12.6108042,9.00315833 L14.9037764,9.00315833 L14.6830403,11.4929083 L12.6108042,11.4929083 L12.6108042,18.9302139 L9.64092917,18.9302139 L9.64092917,11.5242139 L8.09641528,11.5242139 L8.09641528,9.00315833 L9.64092917,9.00315833 L9.64092917,7.01781111 C9.64092917,5.15449167 10.6375958,4.18146389 12.8475125,4.18146389 L14.9037764,4.18146389 L14.9037764,6.76545 Z M11.5000958,-6.38888889e-05 C5.14858194,-6.38888889e-05 9.58333333e-05,5.14842222 9.58333333e-05,11.4999361 C9.58333333e-05,17.85145 5.14858194,22.9999361 11.5000958,22.9999361 C17.8512903,22.9999361 23.0000958,17.85145 23.0000958,11.4999361 C23.0000958,5.14842222 17.8512903,-6.38888889e-05 11.5000958,-6.38888889e-05 L11.5000958,-6.38888889e-05 Z"></path>
                                    </g>
                                </g>
                            </g>
                        </g>
                    </g>
                </g>
            </g>
        </g>
    </g>
</svg>